<svg xmlns="http://www.w3.org/2000/svg" style="display:none">
  <!-- Biblioteca de ícones do Design System — traço 1.8, grade 24.
       Uso: <svg class="ds-ic"><use href="/icons.svg#nome"/></svg> -->
  <symbol id="dashboard" viewBox="0 0 24 24"><rect x="3" y="3" width="7" height="9" rx="1.5"/><rect x="14" y="3" width="7" height="5" rx="1.5"/><rect x="14" y="12" width="7" height="9" rx="1.5"/><rect x="3" y="16" width="7" height="5" rx="1.5"/></symbol>
  <symbol id="search" viewBox="0 0 24 24"><circle cx="11" cy="11" r="7"/><path d="m20 20-3.5-3.5"/></symbol>
  <symbol id="list" viewBox="0 0 24 24"><path d="M3 7h18M6 12h12M9 17h6"/></symbol>
  <symbol id="cart" viewBox="0 0 24 24"><circle cx="9" cy="20" r="1.6"/><circle cx="17" cy="20" r="1.6"/><path d="M3 4h2l2.5 11.5a1.6 1.6 0 0 0 1.6 1.3h7.6a1.6 1.6 0 0 0 1.6-1.2L20.5 8H6"/></symbol>
  <symbol id="bag" viewBox="0 0 24 24"><path d="M6 2 3 6v14a2 2 0 0 0 2 2h14a2 2 0 0 0 2-2V6l-3-4zM3 6h18M16 10a4 4 0 0 1-8 0"/></symbol>
  <symbol id="alert" viewBox="0 0 24 24"><path d="M12 9v4M12 17h.01M10.3 3.9 1.8 18a2 2 0 0 0 1.7 3h17a2 2 0 0 0 1.7-3L13.7 3.9a2 2 0 0 0-3.4 0z"/></symbol>
  <symbol id="chart" viewBox="0 0 24 24"><path d="M3 3v18h18M7 15l4-6 4 3 5-8"/></symbol>
  <symbol id="shield" viewBox="0 0 24 24"><path d="M12 22s8-4 8-10V5l-8-3-8 3v7c0 6 8 10 8 10z"/></symbol>
  <symbol id="trend" viewBox="0 0 24 24"><path d="M3 17 9 11l4 4 8-8M21 7v6h-6"/></symbol>
  <symbol id="trend-down" viewBox="0 0 24 24"><path d="M3 7l6 6 4-4 8 8M21 17v-6h-6"/></symbol>
  <symbol id="calendar" viewBox="0 0 24 24"><rect x="3" y="4" width="18" height="17" rx="2"/><path d="M3 9h18M8 2v4M16 2v4"/></symbol>
  <symbol id="store" viewBox="0 0 24 24"><path d="M3 9h18M3 4h18v16H3zM8 14h3"/></symbol>
  <symbol id="refresh" viewBox="0 0 24 24"><path d="M21 12a9 9 0 1 1-2.6-6.3M21 3v6h-6"/></symbol>
  <symbol id="download" viewBox="0 0 24 24"><path d="M12 3v12m0 0 4-4m-4 4-4-4M4 17v2a2 2 0 0 0 2 2h12a2 2 0 0 0 2-2v-2"/></symbol>
  <symbol id="printer" viewBox="0 0 24 24"><path d="M6 9V3h12v6M6 18H4a2 2 0 0 1-2-2v-5a2 2 0 0 1 2-2h16a2 2 0 0 1 2 2v5a2 2 0 0 1-2 2h-2M6 14h12v7H6z"/></symbol>
  <symbol id="chevron-down" viewBox="0 0 24 24"><path d="m6 9 6 6 6-6"/></symbol>
  <symbol id="chevron-right" viewBox="0 0 24 24"><path d="m9 6 6 6-6 6"/></symbol>
  <symbol id="logout" viewBox="0 0 24 24"><path d="M9 21H5a2 2 0 0 1-2-2V5a2 2 0 0 1 2-2h4M16 17l5-5-5-5M21 12H9"/></symbol>
  <symbol id="user" viewBox="0 0 24 24"><circle cx="12" cy="8" r="4"/><path d="M4 21c0-4 3.6-6 8-6s8 2 8 6"/></symbol>
  <symbol id="users" viewBox="0 0 24 24"><circle cx="9" cy="8" r="3.5"/><path d="M2.5 20c0-3.5 3-5.5 6.5-5.5s6.5 2 6.5 5.5M16 4.6a3.5 3.5 0 0 1 0 6.8M21.5 20c0-2.8-1.9-4.6-4.5-5.3"/></symbol>
  <symbol id="close" viewBox="0 0 24 24"><path d="M18 6 6 18M6 6l12 12"/></symbol>
  <symbol id="check" viewBox="0 0 24 24"><path d="m4 12.5 5.5 5.5L20 6.5"/></symbol>
  <symbol id="folder" viewBox="0 0 24 24"><path d="M3 7a2 2 0 0 1 2-2h4l2.5 3H19a2 2 0 0 1 2 2v8a2 2 0 0 1-2 2H5a2 2 0 0 1-2-2z"/></symbol>
  <symbol id="tv" viewBox="0 0 24 24"><rect x="2" y="5" width="20" height="13" rx="2"/><path d="M8 22h8"/></symbol>
  <symbol id="settings" viewBox="0 0 24 24"><circle cx="12" cy="12" r="3"/><path d="M19.4 15a1.7 1.7 0 0 0 .34 1.87l.06.06a2 2 0 1 1-2.83 2.83l-.06-.06a1.7 1.7 0 0 0-1.87-.34 1.7 1.7 0 0 0-1 1.55V21a2 2 0 1 1-4 0v-.09a1.7 1.7 0 0 0-1-1.55 1.7 1.7 0 0 0-1.87.34l-.06.06a2 2 0 1 1-2.83-2.83l.06-.06a1.7 1.7 0 0 0 .34-1.87 1.7 1.7 0 0 0-1.55-1H3a2 2 0 1 1 0-4h.09a1.7 1.7 0 0 0 1.55-1 1.7 1.7 0 0 0-.34-1.87l-.06-.06a2 2 0 1 1 2.83-2.83l.06.06a1.7 1.7 0 0 0 1.87.34h.01a1.7 1.7 0 0 0 1-1.55V3a2 2 0 1 1 4 0v.09a1.7 1.7 0 0 0 1 1.55h.01a1.7 1.7 0 0 0 1.87-.34l.06-.06a2 2 0 1 1 2.83 2.83l-.06.06a1.7 1.7 0 0 0-.34 1.87v.01a1.7 1.7 0 0 0 1.55 1H21a2 2 0 1 1 0 4h-.09a1.7 1.7 0 0 0-1.55 1z"/></symbol>
</svg>
